<svg width="175" height="211" viewBox="0 0 175 211" fill="none" xmlns="http://www.w3.org/2000/svg">
<path d="M87.4748 140.473C126.021 140.473 157.27 109.225 157.27 70.6785C157.27 32.1318 126.021 0.883545 87.4748 0.883545C48.9281 0.883545 17.6798 32.1318 17.6798 70.6785C17.6798 109.225 48.9281 140.473 87.4748 140.473Z" fill="#FFEC3B"/>
<path d="M97.7698 63.3429C97.9648 62.6271 98.4239 62.0298 99.0681 61.6596C99.7123 61.2893 100.46 61.1931 101.176 61.3881C101.892 61.5831 102.489 62.0422 102.859 62.6864L105.681 61.0697C104.878 59.6726 103.583 58.6705 102.028 58.2509C100.473 57.8313 98.8484 58.0386 97.4514 58.8408C96.0543 59.643 95.0522 60.9388 94.6326 62.4938C94.2105 64.0488 94.4203 65.673 95.2225 67.07L98.0437 65.4533C97.671 64.8091 97.5748 64.0587 97.7698 63.3429Z" fill="#212136"/>
<path d="M107.566 64.8116L105.15 66.1988C106.221 68.0648 108.176 69.1088 110.188 69.1088C111.165 69.1088 112.155 68.862 113.063 68.3412C114.406 67.5711 115.368 66.3222 115.773 64.8289C116.178 63.3356 115.976 61.7732 115.206 60.428L112.789 61.8151C113.189 62.5137 113.295 63.3232 113.083 64.1007C112.873 64.8758 112.372 65.5249 111.676 65.9248C110.237 66.7517 108.393 66.2506 107.566 64.8116Z" fill="#212136"/>
<path d="M114.181 33.5955C115.324 34.5014 116.933 35.2764 118.718 35.775C120.001 36.1354 121.334 36.3353 122.551 36.3353C124.765 36.3353 126.599 35.6713 127.041 34.0917C127.727 31.6456 124.425 29.3403 120.809 28.3233C117.193 27.3089 113.172 27.5606 112.486 30.0067C112.293 30.6929 112.259 32.0701 114.181 33.5955ZM116.975 30.1819C117.837 30.1819 118.92 30.3078 120.157 30.6558C123.156 31.4975 124.694 32.9735 124.713 33.4425C124.452 33.83 122.371 34.2916 119.374 33.4499C116.346 32.6008 114.808 31.1026 114.811 30.6756C114.944 30.4436 115.729 30.1819 116.975 30.1819Z" fill="#212136"/>
<path d="M72.4109 62.2126L71.6655 66.0902C72.1394 66.1815 72.6133 66.226 73.0848 66.226C74.5534 66.226 75.9899 65.7891 77.2315 64.9474C78.8728 63.8342 79.9836 62.1509 80.3587 60.2034L76.4811 59.458C76.1183 61.3388 74.2942 62.573 72.4109 62.2126Z" fill="#212136"/>
<path d="M114.623 52.8356C115.951 52.0729 117.652 52.5345 118.414 53.8624L121.233 52.2432C119.579 49.3603 115.887 48.3606 113.004 50.0144C110.121 51.6681 109.121 55.3606 110.775 58.2436L113.596 56.6268C112.834 55.2965 113.295 53.5958 114.623 52.8356Z" fill="#212136"/>
<path d="M136.245 58.4582C135.08 52.4381 131.815 47.2226 127.199 43.5523L127.216 43.5277C126.898 43.2882 126.545 43.034 126.16 42.7699C122.865 40.4152 118.962 38.8133 114.695 38.2036C112.51 37.8729 110.121 37.7914 107.554 38.1024C96.0643 39.4995 87.334 48.7801 84.7695 62.3284C82.1137 76.3678 74.4201 84.1009 63.1105 84.1009C51.6874 84.1009 42.3969 74.8079 42.3969 63.3873C42.3969 51.9642 51.6899 42.6736 63.1105 42.6736C66.7043 42.6736 70.2463 43.6091 73.3489 45.3764L75.5037 41.595C71.7445 39.455 67.4621 38.3221 63.113 38.3221C61.3186 38.3221 59.5686 38.5146 57.8803 38.875C57.1694 37.3422 56.7671 35.6342 56.7671 33.8348C56.7671 31.6479 57.3546 29.6017 58.374 27.8345C53.0203 28.8045 48.8638 33.3806 48.6416 39.0428C48.5922 40.2918 48.7403 41.5012 49.0538 42.6465C43.7199 46.2724 39.8521 51.9 38.5366 58.4409H38.5341C35.6536 70.2441 34.0517 86.2211 34.417 93.1792H34.4195C34.5405 99.5571 39.361 105.049 45.8722 105.827C46.3906 105.888 46.9089 105.918 47.4198 105.918C50.5619 105.918 53.5016 104.773 55.7872 102.845C62.9526 97.3036 71.2928 90.1086 78.8358 82.9532L78.7939 82.9087C83.8464 78.5991 87.3957 71.888 89.0495 63.1429C91.2808 51.3496 98.3968 43.6042 108.085 42.4268C109.102 42.3034 110.084 42.254 111.032 42.2664V42.2812C112.024 42.2911 112.997 42.3676 113.949 42.4984C117.921 43.0834 121.102 44.6631 123.262 46.0675C128.803 49.8587 132.37 56.1553 132.37 63.3897C132.37 74.8128 123.077 84.1034 111.656 84.1034C106.828 84.1034 102.657 82.7285 99.2533 80.0209C99.1521 79.9271 99.0509 79.8308 98.9521 79.737L95.9557 82.8939C103.679 90.2197 112.431 97.7281 119.972 103.492L119.984 103.474C122.134 105.017 124.755 105.913 127.537 105.913C128.048 105.913 128.564 105.883 129.085 105.822C135.596 105.044 140.414 99.5547 140.535 93.1742H140.537C140.925 85.6584 138.923 69.4394 136.245 58.4582ZM42.9449 101.117C41.9872 100.475 41.0764 99.6114 40.405 98.634C41.0937 98.0416 41.6861 97.5554 42.3722 97.0025C42.9276 97.7183 43.6286 98.439 44.337 98.8981L42.9449 101.117ZM61.1878 93.8999C59.0379 95.7659 54.5654 99.6485 51.7886 101.152C50.4805 101.86 49.0859 102.218 47.6395 102.218C47.5926 102.218 47.5432 102.218 47.4963 102.218L47.5383 99.6633C48.5873 99.6756 49.6116 99.4263 50.5718 98.9055C53.1042 97.5356 57.4335 93.7765 59.5143 91.9722L59.966 91.5797L61.637 93.5124L61.1878 93.8999ZM136.482 81.1908C136.482 81.1908 136.546 81.9412 136.583 82.3855C136.635 83.0075 136.689 83.6319 136.712 83.8664L134.169 84.1231C134.145 83.8837 134.09 83.2419 134.036 82.6002C133.999 82.1682 133.937 81.4376 133.937 81.4376L136.482 81.1908ZM137.116 93.0039C136.781 96.7507 134.848 99.7052 131.945 100.91L130.965 98.5501C133.942 97.3159 134.478 93.8184 134.572 92.7768C134.668 91.7081 134.651 90.1012 134.52 87.9958L137.069 87.8378C137.21 90.1012 137.225 91.7895 137.116 93.0039Z" fill="#212136"/>
<path d="M57.7864 56.4145L55.2145 55.3408C54.3802 57.3327 52.6574 58.2731 50.5989 57.851L50.0386 60.5809C50.5495 60.6846 51.0506 60.7364 51.5417 60.7364C52.1539 60.7364 52.7438 60.6525 53.3065 60.4995C54.6493 63.923 56.8436 67.0404 59.7339 69.6L61.5826 67.5143C58.9416 65.1768 56.9596 62.3235 55.7872 59.1938C56.6239 58.4854 57.3125 57.5499 57.7864 56.4145Z" fill="#212136"/>
<path d="M67.0029 59.3963C65.6084 56.97 65.1197 54.0402 65.4578 50.1749L61.5259 49.8293C61.1112 54.5388 61.7628 58.2041 63.5795 61.3635L67.0029 59.3963Z" fill="#212136"/>
<path d="M18.3314 165.317C18.3314 157.386 23.7122 152.6 31.154 152.6C35.0317 152.6 38.2453 154.069 40.2027 156.478L35.276 161.962C34.2986 161.158 33.0398 160.355 31.3293 160.355C28.5006 160.355 26.4026 162.172 26.4026 165.317C26.4026 168.53 28.6043 170.347 31.3293 170.347C32.9707 170.347 34.2295 169.648 35.2069 168.881L39.9583 174.54C37.9664 176.708 34.8219 178.105 31.154 178.105C23.7122 178.105 18.3314 173.247 18.3314 165.317Z" fill="#FFEC3B"/>
<path d="M68.9973 165.317C68.9973 157.596 74.7261 152.6 82.1334 152.6C89.5406 152.6 95.2695 157.596 95.2695 165.317C95.2695 173.388 89.5406 178.105 82.1334 178.105C74.7286 178.105 68.9973 173.388 68.9973 165.317ZM86.9909 165.317C86.9909 162.313 85.0336 160.146 82.0643 160.146C79.095 160.146 77.1376 162.313 77.1376 165.317C77.1376 168.355 79.095 170.522 82.0643 170.522C85.0336 170.522 86.9909 168.357 86.9909 165.317Z" fill="#FFEC3B"/>
<path d="M95.62 153.126H103.97L106.626 168.009H107.115L111.669 156.873H113.32L117.874 168.009H118.363L121.018 153.126H129.403L124.373 177.581H115.198L112.737 170.018H112.249L109.788 177.581H100.648L95.62 153.126Z" fill="#FFEC3B"/>
<path d="M132.266 153.126H144.25C151.306 153.126 156.618 157.354 156.618 165.388C156.618 173.425 151.309 177.581 144.25 177.581H132.266V153.126ZM143.376 171.292C147.219 171.292 148.895 168.987 148.895 165.353C148.895 161.72 147.219 159.415 143.094 159.415H140.263V171.292H143.376Z" fill="#FFEC3B"/>
<path d="M67.035 161.582C67.035 157.048 63.3475 153.126 58.8133 153.126H43.0337V156.685V167.568V170.041V177.581H50.3323H50.8902V170.038H54.326L57.1472 177.579H66.1958L62.4786 169.125C65.1789 167.708 67.035 164.798 67.035 161.582ZM56.7202 164.198H50.8902V158.963H56.7202C58.0358 158.963 59.1021 160.266 59.1021 161.58C59.1021 162.898 58.0358 164.198 56.7202 164.198Z" fill="#FFEC3B"/>
<path d="M0.468628 198.164C0.468628 190.234 5.84943 185.448 13.2912 185.448C17.1689 185.448 20.3825 186.916 22.3399 189.325L17.4132 194.81C16.4358 194.005 15.177 193.203 13.4665 193.203C10.6379 193.203 8.53983 195.02 8.53983 198.164C8.53983 201.378 10.7415 203.195 13.4665 203.195C15.1079 203.195 16.3667 202.496 17.3441 201.728L22.0955 207.388C20.1036 209.555 16.9591 210.952 13.2912 210.952C5.84943 210.95 0.468628 206.095 0.468628 198.164Z" fill="#F74660"/>
<path d="M22.2338 198.164C22.2338 190.443 27.9626 185.448 35.3698 185.448C42.7771 185.448 48.5059 190.443 48.5059 198.164C48.5059 206.235 42.7771 210.952 35.3698 210.952C27.9626 210.95 22.2338 206.233 22.2338 198.164ZM40.2274 198.164C40.2274 195.16 38.27 192.993 35.3007 192.993C32.3314 192.993 30.3741 195.16 30.3741 198.164C30.3741 201.203 32.3314 203.37 35.3007 203.37C38.27 203.37 40.2274 201.203 40.2274 198.164Z" fill="#F74660"/>
<path d="M50.6384 185.971H59.0231L68.0372 199.213H68.2815V185.971H75.7924V210.426H67.4078L58.4283 197.221H58.1493V210.426H50.6384V185.971Z" fill="#F74660"/>
<path d="M85.3717 192.258H78.384V185.969H100.393V192.258H93.4059V210.424H85.3717V192.258Z" fill="#F74660"/>
<path d="M128.29 198.164C128.29 190.443 134.019 185.448 141.426 185.448C148.833 185.448 154.562 190.443 154.562 198.164C154.562 206.235 148.833 210.952 141.426 210.952C134.019 210.95 128.29 206.233 128.29 198.164ZM146.283 198.164C146.283 195.16 144.326 192.993 141.357 192.993C138.387 192.993 136.43 195.16 136.43 198.164C136.43 201.203 138.387 203.37 141.357 203.37C144.326 203.37 146.283 201.203 146.283 198.164Z" fill="#F74660"/>
<path d="M156.766 185.971H164.8V204.137H174.478V210.426H156.766V185.971Z" fill="#F74660"/>
<path d="M126.636 194.427C126.636 189.893 122.948 185.971 118.414 185.971H102.874V189.53V200.413V202.886V210.426H110.173H110.731V202.886H113.925L116.746 210.426H125.794L122.077 201.973C124.777 200.553 126.636 197.643 126.636 194.427ZM116.321 197.046H110.733V191.811H116.321C117.637 191.811 118.703 193.114 118.703 194.427C118.703 195.743 117.637 197.046 116.321 197.046Z" fill="#F74660"/>
<path d="M167.628 189.414V186.478H166.579V185.881H169.388V186.478H168.341V189.414H167.628ZM169.841 189.414V185.881H170.909L171.55 188.291L172.184 185.881H173.254V189.414H172.591V186.633L171.89 189.414H171.203L170.504 186.633V189.414H169.841Z" fill="#F74660"/>
</svg>
