<svg xmlns="http://www.w3.org/2000/svg" xml:space="preserve" id="Layer_1" x="0" y="0" style="enable-background:new 0 0 821.78 604.62" version="1.1" viewBox="0 0 821.78 604.62">
  <style>
    .st0{fill:#212136}
  </style>
  <path d="M490.54 275.26c1.5-5.54 5.07-10.16 10.05-13.02 4.98-2.86 10.78-3.6 16.31-2.1 5.54 1.5 10.16 5.07 13.02 10.05l21.82-12.52c-6.2-10.81-16.24-18.56-28.26-21.81-12.02-3.25-24.6-1.64-35.4 4.56-10.81 6.2-18.55 16.24-21.81 28.26-3.26 12.02-1.64 24.6 4.56 35.4l21.82-12.52c-2.87-4.97-3.61-10.76-2.11-16.3zM566.34 286.62l-18.7 10.73c8.28 14.43 23.42 22.52 38.98 22.52 7.56 0 15.22-1.91 22.24-5.94 10.39-5.96 17.84-15.61 20.97-27.18 3.13-11.56 1.57-23.65-4.39-34.04l-18.7 10.73c3.09 5.4 3.91 11.67 2.28 17.68-1.63 6-5.49 11.01-10.89 14.11-11.13 6.39-25.4 2.53-31.79-8.61zM617.52 45.1c8.83 7.01 21.3 13 35.1 16.87 9.92 2.78 20.24 4.34 29.66 4.34 17.14 0 31.31-5.14 34.74-17.35 5.3-18.92-20.24-36.77-48.22-44.62-27.98-7.85-59.09-5.91-64.4 13.02-1.49 5.29-1.76 15.95 13.12 27.74zm21.6-26.41c6.67 0 15.04.97 24.62 3.66 23.2 6.51 35.09 17.93 35.25 21.55-2.02 3.01-18.13 6.58-41.31.06-23.42-6.57-35.33-18.16-35.3-21.46 1.03-1.79 7.11-3.81 16.74-3.81zM294.34 266.51l-5.77 29.99c3.66.7 7.33 1.05 10.97 1.05 11.37 0 22.47-3.38 32.09-9.9 12.7-8.6 21.29-21.64 24.19-36.7l-29.99-5.77c-2.8 14.56-16.92 24.12-31.49 21.33zM620.93 193.95c10.27-5.9 23.44-2.33 29.34 7.95l21.82-12.52c-12.8-22.3-41.36-30.04-63.67-17.24-22.31 12.8-30.05 41.36-17.25 63.67l21.82-12.52c-5.9-10.28-2.34-23.44 7.94-29.34z" class="st0"/>
  <path d="M788.23 237.46c-9.01-46.58-34.27-86.94-69.98-115.32l.14-.19c-2.47-1.86-5.2-3.83-8.17-5.86-25.5-18.22-55.68-30.62-88.71-35.33-16.9-2.56-35.38-3.19-55.26-.78-88.9 10.8-156.45 82.62-176.28 187.44-20.56 108.63-80.07 168.45-167.58 168.45-88.37 0-160.27-71.89-160.27-160.27 0-88.37 71.89-160.27 160.27-160.27 27.81 0 55.2 7.23 79.21 20.9l16.67-29.26c-29.07-16.56-62.22-25.32-95.87-25.32-13.88 0-27.42 1.5-40.48 4.28a92.47 92.47 0 0 1-8.6-39c0-16.91 4.54-32.75 12.43-46.42-41.43 7.5-73.58 42.91-75.29 86.72-.38 9.66.76 19.02 3.18 27.87-41.27 28.06-71.19 71.59-81.37 122.19h-.01C9.97 328.63-2.42 452.24.39 506.07h.02c.94 49.35 38.23 91.84 88.6 97.84 4.02.48 8.01.71 11.97.71 24.31 0 47.05-8.86 64.73-23.78 55.44-42.87 119.97-98.54 178.32-153.89l-.33-.35c39.08-33.35 66.55-85.28 79.35-152.92 17.27-91.25 72.32-151.17 147.27-160.27 7.86-.96 15.47-1.33 22.81-1.24v.11c7.68.07 15.2.67 22.57 1.68 30.73 4.52 55.35 16.75 72.04 27.62 42.87 29.33 70.48 78.05 70.48 134.03 0 88.37-71.89 160.27-160.27 160.27-37.36 0-69.63-10.63-95.96-31.58-.77-.73-1.56-1.47-2.33-2.2l-23.18 24.43c59.75 56.69 127.47 114.78 185.8 159.37l.09-.12c16.64 11.93 36.92 18.86 58.43 18.86 3.95 0 7.95-.24 11.97-.71 50.37-6.01 87.65-48.49 88.59-97.84h.02c3.05-58.19-12.44-183.66-33.15-268.63zM66.37 567.51c-7.41-4.96-14.46-11.64-19.65-19.21 5.32-4.58 9.92-8.35 15.21-12.63 4.29 5.55 9.71 11.11 15.19 14.66l-10.75 17.18zm141.13-55.84c-16.63 14.43-51.23 44.47-72.73 56.11-10.12 5.47-20.91 8.25-32.1 8.25-.37 0-.74 0-1.1-.01l.32-19.76c8.11.09 16.04-1.84 23.47-5.86 19.59-10.6 53.08-39.68 69.18-53.65l3.49-3.03 12.93 14.95-3.46 3zm582.54-98.33s.5 5.81.79 9.24c.41 4.82.81 9.65 1 11.46l-19.67 1.98c-.19-1.86-.61-6.83-1.03-11.78-.28-3.35-.77-9-.77-9l19.68-1.9zm4.91 91.4c-2.59 28.98-17.55 51.85-40.01 61.17l-7.58-18.26c23.04-9.56 27.18-36.61 27.9-44.67.74-8.26.6-20.71-.41-36.99l19.73-1.23c1.1 17.51 1.22 30.59.37 39.98z" class="st0"/>
  <path d="m181.19 221.65-19.89-8.31c-6.45 15.42-19.79 22.69-35.7 19.42l-4.33 21.13c3.95.8 7.83 1.2 11.62 1.2 4.73 0 9.3-.65 13.66-1.83 10.4 26.49 27.37 50.61 49.72 70.4l14.3-16.14c-20.43-18.09-35.77-40.17-44.83-64.37 6.46-5.49 11.78-12.72 15.45-21.5zM252.5 244.72c-10.78-18.76-14.58-41.43-11.95-71.34l-30.43-2.68c-3.21 36.43 1.84 64.79 15.89 89.24l26.49-15.22z" class="st0"/>
</svg>